<mxfile host="65bd71144e">
    <diagram id="ZO8bSK2hChLesPN-1yEf" name="Page-1">
        <mxGraphModel dx="707" dy="899" grid="1" gridSize="10" guides="1" tooltips="1" connect="1" arrows="1" fold="1" page="1" pageScale="1" pageWidth="850" pageHeight="1100" math="0" shadow="0">
            <root>
                <mxCell id="0"/>
                <mxCell id="1" parent="0"/>
                <mxCell id="9" style="edgeStyle=orthogonalEdgeStyle;rounded=0;sketch=0;orthogonalLoop=1;jettySize=auto;html=1;fontColor=#5C5C5C;strokeColor=#006658;fillColor=#21C0A5;entryX=0;entryY=0.5;entryDx=0;entryDy=0;" edge="1" parent="1" source="2" target="22">
                    <mxGeometry relative="1" as="geometry">
                        <mxPoint x="590" y="160" as="targetPoint"/>
                    </mxGeometry>
                </mxCell>
                <mxCell id="15" style="edgeStyle=orthogonalEdgeStyle;rounded=0;sketch=0;orthogonalLoop=1;jettySize=auto;html=1;exitX=1;exitY=1;exitDx=0;exitDy=0;entryX=0;entryY=0.5;entryDx=0;entryDy=0;fontColor=#5C5C5C;strokeColor=#006658;fillColor=#21C0A5;" edge="1" parent="1" source="2" target="12">
                    <mxGeometry relative="1" as="geometry"/>
                </mxCell>
                <mxCell id="16" style="edgeStyle=orthogonalEdgeStyle;rounded=0;sketch=0;orthogonalLoop=1;jettySize=auto;html=1;exitX=0.75;exitY=1;exitDx=0;exitDy=0;entryX=0;entryY=0.5;entryDx=0;entryDy=0;fontColor=#5C5C5C;strokeColor=#006658;fillColor=#21C0A5;" edge="1" parent="1" source="2" target="13">
                    <mxGeometry relative="1" as="geometry"/>
                </mxCell>
                <mxCell id="17" style="edgeStyle=orthogonalEdgeStyle;rounded=0;sketch=0;orthogonalLoop=1;jettySize=auto;html=1;exitX=0.5;exitY=1;exitDx=0;exitDy=0;entryX=0;entryY=0.5;entryDx=0;entryDy=0;fontColor=#5C5C5C;strokeColor=#006658;fillColor=#21C0A5;" edge="1" parent="1" source="2" target="14">
                    <mxGeometry relative="1" as="geometry"/>
                </mxCell>
                <mxCell id="19" style="edgeStyle=orthogonalEdgeStyle;rounded=0;sketch=0;orthogonalLoop=1;jettySize=auto;html=1;exitX=0.25;exitY=1;exitDx=0;exitDy=0;entryX=0;entryY=0.5;entryDx=0;entryDy=0;fontColor=#5C5C5C;strokeColor=#006658;fillColor=#21C0A5;" edge="1" parent="1" source="2" target="18">
                    <mxGeometry relative="1" as="geometry"/>
                </mxCell>
                <mxCell id="21" style="edgeStyle=orthogonalEdgeStyle;rounded=0;sketch=0;orthogonalLoop=1;jettySize=auto;html=1;exitX=0;exitY=1;exitDx=0;exitDy=0;entryX=0;entryY=0.5;entryDx=0;entryDy=0;fontColor=#5C5C5C;strokeColor=#006658;fillColor=#21C0A5;" edge="1" parent="1" source="2" target="20">
                    <mxGeometry relative="1" as="geometry"/>
                </mxCell>
                <mxCell id="2" value="Course" style="rounded=0;whiteSpace=wrap;html=1;fillColor=#21C0A5;strokeColor=#006658;fontColor=#5C5C5C;" vertex="1" parent="1">
                    <mxGeometry x="200" y="130" width="120" height="60" as="geometry"/>
                </mxCell>
                <mxCell id="12" value="Course Number" style="ellipse;whiteSpace=wrap;html=1;aspect=fixed;rounded=0;sketch=0;fontColor=#5C5C5C;strokeColor=#006658;fillColor=#21C0A5;" vertex="1" parent="1">
                    <mxGeometry x="610" y="230" width="80" height="80" as="geometry"/>
                </mxCell>
                <mxCell id="13" value="Start Date" style="ellipse;whiteSpace=wrap;html=1;aspect=fixed;rounded=0;sketch=0;fontColor=#5C5C5C;strokeColor=#006658;fillColor=#21C0A5;" vertex="1" parent="1">
                    <mxGeometry x="610" y="330" width="80" height="80" as="geometry"/>
                </mxCell>
                <mxCell id="14" value="Enrollment" style="ellipse;whiteSpace=wrap;html=1;aspect=fixed;rounded=0;sketch=0;fontColor=#5C5C5C;strokeColor=#006658;fillColor=#21C0A5;" vertex="1" parent="1">
                    <mxGeometry x="610" y="430" width="80" height="80" as="geometry"/>
                </mxCell>
                <mxCell id="18" value="Guy to girl ratio" style="ellipse;whiteSpace=wrap;html=1;aspect=fixed;rounded=0;sketch=0;fontColor=#5C5C5C;strokeColor=#006658;fillColor=#21C0A5;" vertex="1" parent="1">
                    <mxGeometry x="610" y="520" width="80" height="80" as="geometry"/>
                </mxCell>
                <mxCell id="20" value="Fun Level" style="ellipse;whiteSpace=wrap;html=1;aspect=fixed;rounded=0;sketch=0;fontColor=#5C5C5C;strokeColor=#006658;fillColor=#21C0A5;" vertex="1" parent="1">
                    <mxGeometry x="610" y="620" width="80" height="80" as="geometry"/>
                </mxCell>
                <mxCell id="22" value="Department Name" style="ellipse;whiteSpace=wrap;html=1;aspect=fixed;rounded=0;sketch=0;fontColor=#5C5C5C;strokeColor=#006658;fillColor=#21C0A5;" vertex="1" parent="1">
                    <mxGeometry x="610" y="120" width="80" height="80" as="geometry"/>
                </mxCell>
            </root>
        </mxGraphModel>
    </diagram>
</mxfile>